Coordinates
version=1
nRows=10
nColumns=38
inDegrees=no

Units are S.I. units (second, meters, Newtons, ...)
If the header above contains a line with 'inDegrees', this indicates whether rotational values are in degrees (yes) or radians (no).

endheader
time	pelvis_tilt	pelvis_list	pelvis_rotation	pelvis_tx	pelvis_ty	pelvis_tz	hip_flexion_r	hip_adduction_r	hip_rotation_r	knee_angle_r	ankle_angle_r	subtalar_angle_r	mtp_angle_r	hip_flexion_l	hip_adduction_l	hip_rotation_l	knee_angle_l	ankle_angle_l	subtalar_angle_l	mtp_angle_l	lumbar_extension	lumbar_bending	lumbar_rotation	arm_flex_r	arm_add_r	arm_rot_r	elbow_flex_r	pro_sup_r	wrist_flex_r	wrist_dev_r	arm_flex_l	arm_add_l	arm_rot_l	elbow_flex_l	pro_sup_l	wrist_flex_l	wrist_dev_l
0.5	-0.0885419	0.0293629	-0.0935598	0.925632	1.01425	-0.286514	0.506997	0.0835993	0.230289	-0.306109	0.273401	-0.0285802	0.00200916	-0.134641	0.0746144	-0.1251	-0.97394	-0.322672	-0.0299809	-0.0350909	-0.099941	0.0247615	-0.217503	-0.851031	-0.336047	-0.17222	1.60355	1.90308	-0.0211789	-0.00609321	-0.496468	-0.271528	0.0692353	2.21397	2.1327	0.0469961	-0.0246415
0.508333	-0.0855279	0.0208223	-0.0967528	0.924885	1.00848	-0.285578	0.501679	0.0994058	0.234607	-0.335037	0.223053	-0.0285802	0.00200916	-0.107916	0.0519743	-0.142319	-1.06928	-0.298922	-0.0299809	-0.0350909	-0.106593	0.0333891	-0.200357	-0.841419	-0.337571	-0.167122	1.60382	1.89576	-0.0211789	-0.00609321	-0.49946	-0.260682	0.0659635	2.1965	2.13054	0.0469961	-0.0246415
0.516667	-0.0828537	0.0126315	-0.0997887	0.923734	1.00204	-0.28476	0.49976	0.116091	0.238705	-0.372575	0.182748	-0.0285802	0.00200916	-0.0786628	0.0313232	-0.155469	-1.16154	-0.274963	-0.0299809	-0.0350909	-0.113638	0.0414723	-0.181865	-0.829252	-0.339447	-0.161188	1.60352	1.89032	-0.0211789	-0.00609321	-0.501042	-0.250625	0.0625843	2.17579	2.12786	0.0469961	-0.0246415
0.525	-0.0805064	0.00480534	-0.102674	0.922199	0.995021	-0.284046	0.50112	0.1336	0.242559	-0.418519	0.152763	-0.0285802	0.00200916	-0.0468806	0.0126889	-0.164568	-1.25066	-0.250824	-0.0299809	-0.0350909	-0.121096	0.0489905	-0.16205	-0.814474	-0.341672	-0.154394	1.60259	1.88676	-0.0211789	-0.00609321	-0.501226	-0.241359	0.0590834	2.15184	2.12468	0.0469961	-0.0246415
0.533333	-0.0784346	-0.00262369	-0.105424	0.920306	0.987605	-0.283433	0.505338	0.15176	0.246101	-0.472142	0.133731	-0.0285802	0.00200916	-0.0125909	-0.0038696	-0.16967	-1.33642	-0.226597	-0.0299809	-0.0350909	-0.129025	0.0558947	-0.140999	-0.796912	-0.344235	-0.146654	1.60095	1.88508	-0.0211789	-0.00609321	-0.500072	-0.232886	0.0554123	2.12461	2.12107	0.0469961	-0.0246415
0.541667	-0.0765008	-0.00962315	-0.108045	0.918092	0.98009	-0.282913	0.511527	0.170241	0.249226	-0.531882	0.12636	-0.0285802	0.00200916	0.0241272	-0.0182847	-0.170886	-1.41836	-0.202438	-0.0299809	-0.0350909	-0.137504	0.0621126	-0.118923	-0.776258	-0.347117	-0.137802	1.59843	1.88526	-0.0211789	-0.00609321	-0.497745	-0.225206	0.0514723	2.09413	2.11716	0.0469961	-0.0246415
0.55	-0.0745503	-0.0162049	-0.110515	0.9156	0.972828	-0.282473	0.518275	0.188537	0.251823	-0.595211	0.1309	-0.0285802	0.00200916	0.0630939	-0.0305207	-0.168399	-1.49576	-0.178538	-0.0299809	-0.0350909	-0.146618	0.0675488	-0.0962102	-0.752106	-0.350278	-0.127583	1.59481	1.88721	-0.0211789	-0.00609321	-0.494577	-0.218305	0.047113	2.06052	2.11317	0.0469961	-0.0246415
0.558333	-0.0724246	-0.0223765	-0.112757	0.912869	0.966118	-0.282086	0.523742	0.20601	0.253814	-0.658759	0.146673	-0.0285802	0.00200916	0.103999	-0.0406064	-0.162469	-1.56765	-0.155075	-0.0299809	-0.0350909	-0.156408	0.0721076	-0.0734492	-0.724051	-0.353645	-0.115703	1.58992	1.89075	-0.0211789	-0.00609321	-0.491112	-0.212162	0.0421493	2.02415	2.10932	0.0469961	-0.0246415
0.566667	-0.0699862	-0.028113	-0.114609	0.909951	0.960161	-0.281731	0.525929	0.221941	0.255201	-0.718726	0.171916	-0.0285802	0.00200916	0.146413	-0.0486276	-0.153438	-1.6329	-0.13218	-0.0299809	-0.0350909	-0.166791	0.0756759	-0.0514118	-0.691828	-0.357089	-0.101894	1.58371	1.89551	-0.0211789	-0.00609321	-0.488107	-0.206762	0.0363967	1.98568	2.10588	0.0469961	-0.0246415
0.575	-0.0671963	-0.033298	-0.115832	0.906927	0.955097	-0.281389	0.523043	0.235591	0.256096	-0.771455	0.204013	-0.0285802	0.00200916	0.189855	-0.0546839	-0.141739	-1.69029	-0.109918	-0.0299809	-0.0350909	-0.177485	0.0780966	-0.0309689	-0.655475	-0.360399	-0.086014	1.57636	1.90095	-0.0211789	-0.00609321	-0.486476	-0.202119	0.0297267	1.94618	2.10299	0.0469961	-0.0246415
